%FSLAX34Y34*%
%MOMM*%
%LNSOLDERMASK_TOP*%
G71*
G01*
%ADD10C, 2.40*%
%ADD11C, 2.40*%
%ADD12C, 5.60*%
%ADD13C, 2.60*%
%ADD14C, 2.40*%
%LPD*%
X127000Y393700D02*
G54D10*
D03*
X127000Y342900D02*
G54D10*
D03*
X254000Y393700D02*
G54D10*
D03*
X254000Y342900D02*
G54D10*
D03*
X469900Y800100D02*
G54D11*
D03*
X469900Y723900D02*
G54D11*
D03*
X800100Y711200D02*
G54D11*
D03*
X800100Y736600D02*
G54D11*
D03*
X800100Y762000D02*
G54D11*
D03*
X800100Y787400D02*
G54D11*
D03*
X355600Y736600D02*
G54D11*
D03*
X330200Y736600D02*
G54D11*
D03*
X304800Y736600D02*
G54D11*
D03*
X279400Y736600D02*
G54D11*
D03*
X825500Y647700D02*
G54D11*
D03*
X800100Y647700D02*
G54D11*
D03*
X774700Y647700D02*
G54D11*
D03*
X749300Y647700D02*
G54D11*
D03*
X723900Y647700D02*
G54D11*
D03*
X698500Y647700D02*
G54D11*
D03*
X673100Y647700D02*
G54D11*
D03*
X647700Y647700D02*
G54D11*
D03*
X622300Y647700D02*
G54D11*
D03*
X596900Y647700D02*
G54D11*
D03*
X571500Y647700D02*
G54D11*
D03*
X546100Y647700D02*
G54D11*
D03*
X520700Y647700D02*
G54D11*
D03*
X495300Y647700D02*
G54D11*
D03*
X469900Y647700D02*
G54D11*
D03*
X469900Y419100D02*
G54D11*
D03*
X495300Y419100D02*
G54D11*
D03*
X520700Y419100D02*
G54D11*
D03*
X546100Y419100D02*
G54D11*
D03*
X571500Y419100D02*
G54D11*
D03*
X596900Y419100D02*
G54D11*
D03*
X622300Y419100D02*
G54D11*
D03*
X647700Y419100D02*
G54D11*
D03*
X673100Y419100D02*
G54D11*
D03*
X698500Y419100D02*
G54D11*
D03*
X723900Y419100D02*
G54D11*
D03*
X749300Y419100D02*
G54D11*
D03*
X774700Y419100D02*
G54D11*
D03*
X800100Y419100D02*
G54D11*
D03*
X825500Y419100D02*
G54D11*
D03*
X406400Y342900D02*
G54D11*
D03*
X431800Y342900D02*
G54D11*
D03*
X457200Y342900D02*
G54D11*
D03*
X482600Y342900D02*
G54D11*
D03*
X165100Y762000D02*
G54D11*
D03*
X139700Y762000D02*
G54D11*
D03*
X114300Y762000D02*
G54D11*
D03*
X88900Y762000D02*
G54D11*
D03*
X76200Y355600D02*
G54D12*
D03*
X838200Y355600D02*
G54D12*
D03*
X139700Y762000D02*
G54D11*
D03*
X800100Y787400D02*
G54D11*
D03*
X127000Y342900D02*
G54D11*
D03*
X254000Y342900D02*
G54D11*
D03*
X482600Y342900D02*
G54D11*
D03*
X685800Y342900D02*
G54D11*
D03*
X800100Y647700D02*
G54D11*
D03*
X800100Y419100D02*
G54D11*
D03*
X698500Y419100D02*
G54D11*
D03*
X304800Y736600D02*
G54D11*
D03*
X711200Y342900D02*
G54D11*
D03*
X736600Y342900D02*
G54D11*
D03*
X507977Y939856D02*
G54D11*
D03*
X507977Y914456D02*
G54D11*
D03*
X507977Y889056D02*
G54D11*
D03*
X507977Y863656D02*
G54D11*
D03*
X507977Y889056D02*
G54D11*
D03*
X736600Y889000D02*
G54D11*
D03*
X762000Y889000D02*
G54D11*
D03*
X762000Y889000D02*
G54D11*
D03*
X304600Y914200D02*
G54D13*
D03*
X304600Y863400D02*
G54D13*
D03*
X304600Y914200D02*
G54D11*
D03*
X76200Y914400D02*
G54D12*
D03*
X838200Y914400D02*
G54D12*
D03*
X152400Y889000D02*
G54D11*
D03*
X177800Y889000D02*
G54D11*
D03*
X203200Y889000D02*
G54D11*
D03*
X418900Y914200D02*
G54D13*
D03*
X418900Y863400D02*
G54D13*
D03*
X418900Y914200D02*
G54D11*
D03*
X152400Y889000D02*
G54D11*
D03*
X50800Y825500D02*
G54D14*
D03*
X90800Y825500D02*
G54D14*
D03*
X50800Y825500D02*
G54D11*
D03*
X368300Y825500D02*
G54D14*
D03*
X368300Y785500D02*
G54D14*
D03*
X368300Y825500D02*
G54D11*
D03*
X368300Y406400D02*
G54D14*
D03*
X340016Y378116D02*
G54D14*
D03*
X368300Y406400D02*
G54D11*
D03*
X622300Y647700D02*
G54D11*
D03*
M02*
