; Drill file
; Format: 2.4 (00.0000)
M48
INCH
T01C0.0236
T02C0.0354
T03C0.0394
T04C0.1181
T05C0.2362
%
G05
G90
T01
X013390Y014890
X014500Y030930
X016490Y033990
X011990Y033990
X003570Y032500
T02
X014500Y016000
X016000Y013500
X017000Y013500
X018000Y013500
X019000Y013500
X018500Y016500
X019500Y016500
X020500Y016500
X021500Y016500
X022500Y016500
X023500Y016500
X024500Y016500
X025500Y016500
X026500Y016500
X027500Y016500
X028500Y016500
X029500Y016500
X030500Y016500
X031500Y016500
X032500Y016500
X029000Y013500
X028000Y013500
X027000Y013500
X027500Y025500
X026500Y025500
X025500Y025500
X024500Y025500
X023500Y025500
X022500Y025500
X021500Y025500
X020500Y025500
X019500Y025500
X018500Y025500
X018500Y028500
X018500Y031500
X020000Y034000
X020000Y035000
X020000Y036000
X020000Y037000
X016490Y035990
X014500Y032500
X014000Y029000
X013000Y029000
X012000Y029000
X011000Y029000
X006500Y030000
X005500Y030000
X004500Y030000
X003500Y030000
X002000Y032500
X006000Y035000
X007000Y035000
X008000Y035000
X011990Y035990
X022500Y029000
X028500Y025500
X029500Y025500
X030500Y025500
X031500Y025500
X032500Y025500
X031500Y028000
X031500Y029000
X031500Y030000
X031500Y031000
X030000Y035000
X029000Y035000
T03
X005000Y013500
X005000Y015500
X010000Y015500
X010000Y013500
T04
X003000Y014000
X003000Y036000
X033000Y036000
X033000Y014000
T05
X007500Y027500
M30
